<?xml version="1.0" encoding="UTF-8"?>
<svg xmlns="http://www.w3.org/2000/svg" xmlns:xlink="http://www.w3.org/1999/xlink" width="35px" height="35px" viewBox="0 0 35 35" version="1.1">
<g id="surface1">
<path style=" stroke:none;fill-rule:nonzero;fill:rgb(3.921569%,12.941176%,20.392157%);fill-opacity:1;" d="M 32.082031 26.257812 C 32.082031 27.058594 31.433594 27.707031 30.632812 27.707031 L 18.949219 27.707031 C 18.148438 27.707031 17.5 27.058594 17.5 26.257812 C 17.5 25.457031 18.148438 24.804688 18.949219 24.804688 L 30.632812 24.804688 C 31.433594 24.804688 32.082031 25.457031 32.082031 26.257812 Z M 32.082031 17.5 C 32.082031 18.300781 31.433594 18.949219 30.632812 18.949219 L 4.367188 18.949219 C 3.566406 18.949219 2.917969 18.300781 2.917969 17.5 C 2.917969 16.699219 3.566406 16.050781 4.367188 16.050781 L 30.632812 16.050781 C 31.433594 16.050781 32.082031 16.699219 32.082031 17.5 Z M 30.632812 10.195312 C 31.433594 10.195312 32.082031 9.542969 32.082031 8.742188 C 32.082031 7.941406 31.433594 7.292969 30.632812 7.292969 L 13.117188 7.292969 C 12.316406 7.292969 11.667969 7.941406 11.667969 8.742188 C 11.667969 9.542969 12.316406 10.195312 13.117188 10.195312 Z M 30.632812 10.195312 "/>
</g>
</svg>
