<?xml version="1.0" encoding="UTF-8"?>
<svg xmlns="http://www.w3.org/2000/svg" xmlns:xlink="http://www.w3.org/1999/xlink" width="25px" height="25px" viewBox="0 0 25 25" version="1.1">
<g id="surface1">
<path style=" stroke:none;fill-rule:nonzero;fill:rgb(100%,100%,100%);fill-opacity:1;" d="M 23.722656 1.121094 C 23.589844 0.984375 23.417969 0.890625 23.234375 0.851562 C 23.046875 0.808594 22.851562 0.824219 22.675781 0.890625 L 0.675781 8.890625 C 0.484375 8.960938 0.320312 9.089844 0.207031 9.257812 C 0.0898438 9.421875 0.03125 9.621094 0.03125 9.824219 C 0.03125 10.027344 0.0898438 10.226562 0.207031 10.390625 C 0.320312 10.558594 0.484375 10.6875 0.675781 10.757812 L 9.265625 14.1875 L 15.605469 7.828125 L 17.015625 9.238281 L 10.644531 15.609375 L 14.085938 24.199219 C 14.160156 24.386719 14.285156 24.546875 14.453125 24.65625 C 14.617188 24.769531 14.8125 24.828125 15.015625 24.828125 C 15.214844 24.824219 15.414062 24.761719 15.578125 24.640625 C 15.742188 24.523438 15.867188 24.359375 15.933594 24.167969 L 23.933594 2.167969 C 24.003906 1.992188 24.019531 1.800781 23.980469 1.613281 C 23.945312 1.429688 23.855469 1.257812 23.722656 1.121094 Z M 23.722656 1.121094 "/>
</g>
</svg>
